<svg width="588" height="101" viewBox="0 0 588 101" fill="none" xmlns="http://www.w3.org/2000/svg">
<path d="M542.97 67.0788C543.11 69.0189 540.38 67.5589 538.94 68.5189C537.77 69.2989 538.03 72.1889 536.48 73.0489L534.85 69.1989L530 69.0489C532.89 65.9589 533.11 65.2488 532.01 61.0688C536.03 63.8988 536.64 62.9588 539.98 60.0688C539.25 63.8488 538.2 66.1288 542.98 67.0688L542.97 67.0788Z" fill="#FAD814"/>
<path d="M583.97 24.0688C584.23 25.3288 583.01 27.0888 583.47 28.1288C584.3 29.9988 587.78 29.1288 586.97 32.0488H581.98V36.0488C579.06 36.8388 579.92 33.3788 578.06 32.5488C577.02 32.0888 575.24 33.2288 574 33.0488L576.94 29.4588L576 24.0688C579.13 26.8788 580.65 26.1588 583.97 24.0688Z" fill="#FAD814"/>
<path d="M520.98 31.0688L518.21 34.5488L519.97 39.0488C516.75 36.8188 515.21 36.8288 512 39.0488C512.38 35.2688 512.43 34.1988 509 32.5588C512.18 31.5188 514.14 30.9688 514 27.0688C516.63 29.1188 516.67 31.9588 520.98 31.0688Z" fill="#FAD814"/>
<path d="M466.09 48.9388C466.46 49.4488 471.83 50.4588 471.97 53.0388L464.21 54.2788L462.97 62.0288L458.86 54.1588L451 55.0388L455.84 49.3288L454 42.0688L461.34 44.8988L466.96 40.0688L466.08 48.9388H466.09Z" fill="#FAD814"/>
<path d="M78.97 48.0788C76.05 52.3888 76.46 54.4488 79.97 58.0488L74.12 57.1389L71.97 62.0388C69.66 61.9688 70.49 56.8188 69.86 56.1788C69.49 55.8088 65.21 55.7288 64 55.0388C64.18 53.1088 67.48 53.7888 68.51 52.0788C69.54 50.3688 68.86 47.9288 69 46.0688C73.48 50.1388 73.25 50.5288 78.98 48.0788H78.97Z" fill="#FAD814"/>
<path d="M226.8 24.9191C227.01 25.2891 230.72 26.1791 230.71 28.0491L225.76 28.1091L224.21 33.0491L222.8 29.4791L217.73 29.0491C220.35 25.9991 221.38 25.1991 219.73 21.0791C223.04 22.2491 224.81 22.1091 227.7 20.0791C228.23 21.5491 226.29 24.0391 226.8 24.9291V24.9191Z" fill="#FAD814"/>
<path d="M132.07 31.9788C132.55 32.6688 136.17 32.1988 135.98 34.0488C132.36 34.6388 130.16 34.8788 129.98 39.0488L127.86 35.1988L123 35.0488C125.9 31.6988 126.82 31.1088 124 27.0788L128.5 29.0988L132.98 26.0688L132.07 31.9788Z" fill="#FAD814"/>
<path d="M8.98 51.0788C7.33 53.8888 8.28 54.7488 9.98 57.0488C7.27 56.8088 5.1 56.9688 4.97 60.0488C2.49 58.7988 4.3 54.9888 0 56.0488V54.0788C2.51 53.9988 3.14 52.3988 3.01 50.0688C5.32 52.0388 6.11 52.0588 8.99 51.0788H8.98Z" fill="#FAD814"/>
<path d="M383.806 21.11L384.727 16.7803C383.972 20.3284 386.202 23.0232 389.189 24.6242C389.866 23.8712 387.449 20.7987 390.026 21.5348C389.274 24.7559 391.595 27.1296 393.56 29.3153L394.316 27.4979L395.902 27.2601L396.807 32.0543L405.474 33.2755L404.622 36.6849L399.54 37.9111C398.942 42.3636 403.322 40.2336 405.463 42.3999C405.553 44.659 402.127 42.0776 401.719 42.4526C404.432 48.5282 401.462 52.3655 401.346 58.3613L402.214 59.3897C410.564 57.6567 412.688 63.3649 408.128 69.6046C409.341 71.8964 412.938 72.1609 412.59 75.2397C408.489 75.9413 409.068 73.7846 407.528 72.339C405.065 70.0311 404.711 74.8463 401.445 73.8492C401.014 71.1011 402.883 71.2036 404.228 69.6529C401.164 69.3556 394.334 61.9415 392.534 61.4599C391.373 61.154 388.494 62.279 386.905 62.1956C385.041 62.0935 382.757 60.5531 381.044 61.4556C380.253 61.8735 379.395 64.3573 378.559 65.3386C375.262 69.1914 371.949 68.0652 368.622 70.0658C367.109 70.9757 366.517 72.5966 365.26 73.6057C363.751 74.8117 356.74 78.65 359.403 74.2756C360.319 72.7712 362.999 72.7214 364.471 70.6759C365.314 69.5063 368.69 62.7578 364.873 65.071C363.379 65.9759 355.552 71.5079 354.235 70.002C354.258 64.623 356.811 66.6161 359.517 65.6429C360.813 65.1776 362.89 62.0533 364.186 61.5817C366.463 60.7492 369.116 62.466 371.124 59.4502C371.925 58.2463 371.877 54.1839 371.636 52.676C371.395 51.1681 368.248 48.524 370.113 47.506C372.218 46.3534 373.461 48.5779 374.627 48.6387C375.792 48.6994 378.711 47.445 380.518 47.3608C386.142 47.0777 394.069 50.9797 391.758 41.7723L343.424 45.3938C345.586 50.2927 341.512 54.533 342.406 59.3957C343.455 61.0596 349.681 57.4571 351.316 62.2761C352.809 66.6952 349.034 68.8476 349.156 70.5425L353.913 74.7062L352.802 76.1407C349.179 76.617 349.876 74.1158 348.892 72.9473C346.949 70.6246 346.23 73.3759 345.423 73.8306C341.87 75.8472 341.611 71.5879 344.781 71.2317L344.581 69.9531C341.523 68.7437 336.06 62.9208 333.574 62.0524C332.242 61.5902 329.358 62.6959 327.577 62.5743C326.096 62.4731 324.661 61.5066 323.311 61.5843C320.943 61.7247 320.075 65.9196 317.882 67.5256C315.538 69.2409 312.562 69.0502 310.285 70.2352C307.386 71.7427 304.507 77.5434 300.055 76.9813C299.865 73.6267 302.162 73.9723 303.765 72.8358C306.25 71.0798 306.722 68.1857 308.318 65.6138C306.072 64.3403 306.01 66.0729 304.447 66.8787C301.601 68.3458 298.737 69.8115 295.765 71.0182C294.054 70.3287 296.235 66.7836 297.012 66.3961C298.035 65.8933 299.521 66.4793 300.784 66.0244C302.047 65.5695 304.124 62.4577 305.458 61.9699C307.485 61.2273 309.813 62.412 311.725 60.4218C313.078 59.0102 313.137 54.9425 312.91 53.0454C312.725 51.5413 309.476 48.928 311.38 47.8812C313.492 46.729 314.741 48.9603 315.9 49.0206C317.389 49.0971 321.295 47.7717 323.601 47.8033C327.307 47.855 331.205 50.2987 333.364 46.2549L283.093 41.884C283.461 44.4579 285.099 46.4954 285.104 49.2584C285.107 52.2353 282.679 56.9215 283.238 59.0805C283.997 61.9894 289.48 57.902 292.003 61.9824C293.862 64.9853 292.232 68.0709 289.952 70.3129C289.877 71.5034 297.213 74.7168 294.492 76.2867C291.88 77.795 290.055 73.9384 288.749 72.4522C288.356 72.3435 282.483 77.2791 283.755 72.6775C284.244 70.9111 287.282 71.9555 286.138 70.3797C285.847 69.9759 279.089 65.8895 277.815 65.0348C276.883 64.4047 275.328 62.6308 274.842 62.4151C273.804 61.9603 270.5 63.0689 268.844 62.9558C267.363 62.8546 265.927 61.8881 264.577 61.9658C262.21 62.1062 261.342 66.3011 259.149 67.9071C256.819 69.6107 253.859 69.4464 251.552 70.6167C248.403 72.2141 246.005 77.6512 241.321 77.3628C240.819 73.5463 244.23 74.3331 246.053 72.3682C247.742 70.5452 247.131 67.6716 249.527 66.9353L248.082 65.3829L237.043 71.4068C235.617 70.7682 236.812 67.8291 237.626 67.3623C238.44 66.8956 240.108 67.2927 241.276 66.8502C242.792 66.274 243.983 63.3913 246.347 62.5773C248.71 61.7633 251.834 62.9205 253.431 59.9523C254.39 58.1802 253.596 56.54 253.547 54.6865C253.532 54.0876 254.253 53.3188 254.254 52.8532C254.255 52.5637 250.686 50.3251 252.081 47.9409C253.961 47.3393 255.88 49.3708 257.179 49.3966C259.097 49.4332 263.013 48.1462 265.523 48.2107C270.762 48.3356 275.197 51.8984 274.038 42.4928C273.455 41.5152 270.304 41.5832 269.066 41.5742C260.038 41.5178 250.655 42.1671 241.665 43.0194C235.949 43.5604 213.255 46.0633 209.341 48.2378C207.228 49.4087 204.819 54.0962 201.318 54.5242L204.737 59.7859C219.985 42.5834 233.602 73.3492 210.392 73.0604C213.361 77.939 219.825 77.8078 224.569 75.9292C227.198 74.8879 230.596 71.8538 226.834 69.7782C225.122 68.8369 223.522 70.7477 223.8 68.9668C226.75 63.8757 233.505 68.8178 232.701 73.81C230.804 85.5682 211.285 79.2132 204.11 78.5785C188.903 77.2316 176.345 81.3329 161.801 82.4542C155.476 82.941 145.742 83.4215 143.542 75.8769C140.901 66.8295 151.721 59.8845 158.392 65.7837C163.902 70.6532 157.504 77.3275 153.755 73.969C151.021 71.5167 156.057 69.2931 155.169 67.7347C147.485 64.1262 144.208 75.9287 151.918 78.5194C158.1 80.5966 171.227 78.8877 175.406 73.1884C164.427 73.0364 164.712 65.7433 161.761 58.1222C159.868 53.2415 156.645 51.8949 152.708 49.0081L156.537 47.7026L154.351 43.1733L156.964 41.4575C152.917 42.1943 150.809 35.2286 155.426 36.5948C157.327 37.1526 158.636 39.325 160.15 40.4165C159.909 37.801 158.453 35.2283 160.434 32.859L163.059 33.1641L163.397 38.7503L166.62 37.0824L169.312 43.27L175.025 42.0491L176.123 49.0465C179.511 48.3465 177.067 45.1211 176.938 43.6146C176.693 40.6967 176.414 37.3737 177.404 34.6787C174.677 34.6875 173.993 40.764 171.199 38.0811C167.665 34.6932 173.416 34.0979 174.173 33.6399C175.452 32.8651 177.311 30.0909 179.432 29.8959C181.251 29.7307 185.706 32.829 187.819 33.4831C189.45 35.1552 188.469 36.5105 188.599 36.6263C188.936 36.9074 190.135 36.662 190.663 37.4532C191.241 38.3297 192.65 44.8953 192.951 45.1613C196.616 42.2335 201.462 38.9585 199.976 33.7029C202.269 35.1056 202.677 32.2512 205.029 32.7957C205.453 39.596 200.163 44.4266 196.997 49.8365C198.667 49.9317 200.376 50.2749 202.046 49.917C203.436 49.6217 203.517 48.2553 204.78 47.706C205.779 47.2708 208.255 46.8357 209.586 46.4861C230.023 41.1356 252.858 40.782 273.871 40.0018C272.382 36.5208 276.343 35.1236 273.809 32.1123C270.269 27.9058 261.496 29.415 258.047 24.7805L262.329 26.0106C262.499 25.9026 260.123 22.4176 261.956 22.2281C262.133 25.5944 265.399 27.5921 268.463 27.6881C267.871 23.3495 262.587 22.2335 262.274 17.8446L266.357 21.8931L266.613 18.1472C266.917 21.2894 268.054 23.7018 270.819 25.3381L271.954 22.2816C271.866 25.3026 273.48 27.9615 275.494 30.0563L277.526 27.6966C279.279 29.0435 278.998 30.7738 278.735 32.7949C298 34.8972 281.467 38.6705 281.412 39.5729L282.356 40.4932L332.935 44.0292C333.082 40.32 331.742 36.761 334.009 33.4232C329.813 27.0008 320.904 29.3249 316.208 23.718L321.069 25.6233L320.928 23.109C322.59 25.2363 324.25 27.225 327.197 27.3004C327.529 22.4396 320.288 21.8507 321.356 16.845L325.091 21.5053C325.216 20.4063 324.404 17.5504 326.012 17.1756C325.163 20.7236 326.94 22.9029 329.559 24.9508L330.73 21.2737C330.643 24.836 332.68 26.6931 333.923 29.654L336.259 27.3151C337.79 28.7035 338.359 30.366 338.117 32.4325L346.451 34.2351L346.262 36.8212L340.75 38.6663L342.472 43.3087L391.875 40.5279C390.146 37.8171 393.387 33.4004 392.509 32.0692C389.93 28.1612 382.351 27.9457 378.499 26.103C377.269 25.5156 373.615 23.0572 374.729 21.7676C376.116 23.5363 378.083 25.137 380.424 25.2906C380.608 25.1709 378.059 22.2783 380.009 22.1282C380.485 25.2255 383.84 26.5685 386.559 26.9619C385.861 23.0816 381.689 21.6074 380.133 18.1972C379.894 17.6774 379.185 15.6844 380.436 15.8705C380.567 18.0695 382.126 19.8877 383.824 21.1238L383.806 21.11ZM406.219 67.8821C406.23 66.1585 407.084 64.0898 405.621 62.813L402.078 64.7737L406.225 67.8825L406.219 67.8821ZM342.73 64.8174L346.239 67.9204L347.474 67.2433C347.793 65.8743 348.119 64.2163 346.887 63.2008L342.73 64.8111L342.73 64.8174ZM288.464 63.616L283.99 65.2047L287.804 68.6118C289.239 67.1931 288.907 65.3769 288.464 63.616ZM210.145 76.486C207.792 71.1901 202.278 72.6133 198.355 75.3787L210.145 76.486ZM196.631 73.0584C194.9 72.9402 193.17 72.7276 191.422 72.7718C190.582 72.7963 187.595 72.8503 187.227 73.6559C188.956 73.4404 191.014 74.9906 192.451 75.007C193.052 75.0102 196.251 73.8694 196.625 73.058L196.631 73.0584ZM185.895 74.8424C180.883 73.8582 178.038 71.197 174.538 76.5652C177.533 76.4865 180.655 76.2844 183.631 75.9339C184.552 75.8268 185.561 76.0657 185.895 74.8424Z" fill="white"/>
</svg>
