<svg width="780" height="100" viewBox="0 0 780 100" fill="none" xmlns="http://www.w3.org/2000/svg">
<path d="M445.168 68.1008C441.478 70.4008 436.698 65.2108 440.248 62.6808C444.108 59.9308 448.068 66.2808 445.168 68.1008Z" fill="white"/>
<path d="M6.1679 48.1008C2.4779 50.4008 -2.3021 45.2108 1.2479 42.6808C5.1079 39.9308 9.0679 46.2808 6.1679 48.1008Z" fill="white"/>
<path d="M364.763 70.6014C365.493 71.0614 366.463 74.7714 364.293 75.4314C357.353 77.5614 359.803 67.4914 364.763 70.6014Z" fill="white"/>
<path d="M572.763 73.6014C573.493 74.0614 574.463 77.7714 572.293 78.4314C565.353 80.5614 567.803 70.4914 572.763 73.6014Z" fill="white"/>
<path d="M306.446 30.5735C311.516 25.5035 319.296 33.8835 314.196 38.7935C308.706 44.0735 302.006 35.0135 306.446 30.5735Z" fill="white"/>
<path d="M607.446 22.5735C612.516 17.5035 620.296 25.8835 615.196 30.7935C609.706 36.0735 603.006 27.0135 607.446 22.5735Z" fill="white"/>
<path d="M771.13 39V42.99L777.13 41.01L774.15 45.49L779.13 48.97L774.27 50.11L774.14 54.97L770.65 51.98L766.16 55.97L766.73 50.95L762.13 49.97C761.41 47.23 763.86 48.12 765.15 46.46L763.15 41L767.61 42.99L771.14 39H771.13Z" fill="white"/>
<path d="M381.13 21V24.99L387.13 23.01L384.15 27.49L389.13 30.97L384.27 32.11L384.14 36.97L380.65 33.98L376.16 37.97L376.73 32.95L372.13 31.97C371.41 29.23 373.86 30.12 375.15 28.46L373.15 23L377.61 24.99L381.14 21H381.13Z" fill="white"/>
<path d="M562.13 23V26.99L568.13 25.01L565.15 29.49L570.13 32.97L565.27 34.11L565.14 38.97L561.65 35.98L557.16 39.97L557.73 34.95L553.13 33.97C552.41 31.23 554.86 32.12 556.15 30.46L554.15 25L558.61 26.99L562.14 23H562.13Z" fill="white"/>
<path d="M294.13 68V71.99L300.13 70.01L297.15 74.49L302.13 77.97L297.27 79.11L297.14 83.97L293.65 80.98L289.16 84.97L289.73 79.95L285.13 78.97C284.41 76.23 286.86 77.12 288.15 75.46L286.15 70L290.61 71.99L294.14 68H294.13Z" fill="white"/>
<path d="M674.13 49V52.99L680.13 51.01L677.15 55.49L682.13 58.97L677.27 60.11L677.14 64.97L673.65 61.98L669.16 65.97L669.73 60.95L665.13 59.97C664.41 57.23 666.86 58.12 668.15 56.46L666.15 51L670.61 52.99L674.14 49H674.13Z" fill="white"/>
<path d="M53.1299 65V68.99L59.1299 67.01L56.1499 71.49L61.1299 74.97L56.2699 76.11L56.1399 80.97L52.6499 77.98L48.1599 81.97L48.7299 76.95L44.1299 75.97C43.4099 73.23 45.8599 74.12 47.1499 72.46L45.1499 67L49.6099 68.99L53.1399 65H53.1299Z" fill="white"/>
<path d="M158.442 63.4919C158.025 64.1052 171.575 71.1248 166.786 74.4052C161.412 78.0807 156.953 63.8929 154.815 62.8232C154.044 62.437 143.76 62.0343 144.702 63.3123C147.64 63.9048 154.751 74.0271 151.322 75.3159C145.835 77.3849 142.447 63.6307 140.598 62.033C139.666 61.2262 131.011 60.2708 130.331 61.2666C133.928 64.6328 137.525 68.2203 138.535 73.2803C129.251 78.2887 128.863 61.3862 127.384 60.1396C126.508 59.4087 117.307 57.5392 116.753 58.4086C119.895 60.6298 124.512 70.0332 118.156 69.0186C112.635 68.1372 112.882 58.5587 109.946 55.4047C108.29 53.6268 100.084 52.3743 97.6342 50.0174C95.0788 50.6678 96.799 50.738 97.5101 51.8609C99.9687 55.7642 101.897 58.4213 101.588 63.4461C99.5691 66.0573 93.0886 60.7736 91.8057 58.5658C89.4199 54.4696 90.4524 50.669 88.8379 47.2436C87.4129 44.2293 84.1242 44.0382 82.6454 41.3054C79.3634 40.3111 86.3028 52.3243 80.1924 54.3899C71.3462 57.3872 78.3489 38.8781 76.6741 35.9049C80.3772 35.9159 84.1759 41.5337 87.2847 40.8361C91.0039 40.0092 92.9007 33.6759 96.0258 31.7925C109.817 23.4498 109.081 36.184 98.5806 40.259C96.0978 41.2225 93.8527 40.842 91.6389 41.4736C90.1936 41.8809 88.6915 41.738 89.7627 43.6579C90.6888 44.7303 108.771 52.0965 110.137 52.0212C114.4 51.7826 120.348 37.9564 128.739 40.7175C129.03 48.2406 120.971 51.1655 114.855 52.7062C115.04 55.0685 115.771 54.1296 116.764 54.4842C119.113 55.3042 129.5 57.696 131.183 56.6089C133.698 54.9814 133.742 47.4204 140.538 46.2121C148.878 44.7324 139.209 57.6368 134.115 56.8347C145.783 64.312 146.704 47.2266 157.475 48.0153C161.673 51.2552 149.749 57.3218 147.06 57.7951C145.225 60.7985 159.623 60.2953 161.695 59.2685C164.845 57.7139 166.939 48.111 173.117 50.7129C177.749 52.6597 167.817 59.1698 165.527 59.542C170.106 60.7899 175.008 59.0843 179.742 59.5321C193.213 60.8027 191.966 70.6084 179.504 67.9057C175.495 67.0376 173.302 63.5202 169.444 62.7597C167.854 62.446 159.126 62.4739 158.423 63.4982L158.442 63.4919Z" fill="white"/>
<path d="M521.442 58.4919C521.025 59.1052 534.575 66.1248 529.786 69.4052C524.412 73.0807 519.953 58.8929 517.815 57.8232C517.044 57.437 506.76 57.0343 507.702 58.3123C510.64 58.9048 517.751 69.0271 514.322 70.3159C508.835 72.3849 505.447 58.6307 503.598 57.033C502.666 56.2262 494.011 55.2708 493.331 56.2666C496.928 59.6328 500.525 63.2203 501.535 68.2803C492.251 73.2887 491.863 56.3862 490.384 55.1396C489.508 54.4087 480.307 52.5392 479.753 53.4086C482.895 55.6298 487.512 65.0332 481.156 64.0186C475.635 63.1372 475.882 53.5587 472.946 50.4047C471.29 48.6268 463.084 47.3743 460.634 45.0174C458.079 45.6678 459.799 45.738 460.51 46.8609C462.969 50.7642 464.897 53.4213 464.588 58.4461C462.569 61.0573 456.089 55.7736 454.806 53.5658C452.42 49.4696 453.452 45.669 451.838 42.2436C450.413 39.2293 447.124 39.0382 445.645 36.3054C442.363 35.3111 449.303 47.3243 443.192 49.3899C434.346 52.3872 441.349 33.8781 439.674 30.9049C443.377 30.9159 447.176 36.5337 450.285 35.8361C454.004 35.0092 455.901 28.6759 459.026 26.7925C472.817 18.4498 472.081 31.184 461.581 35.259C459.098 36.2225 456.853 35.842 454.639 36.4736C453.194 36.8809 451.692 36.738 452.763 38.6579C453.689 39.7303 471.771 47.0965 473.137 47.0212C477.4 46.7826 483.348 32.9564 491.739 35.7175C492.03 43.2406 483.971 46.1655 477.855 47.7062C478.04 50.0685 478.771 49.1296 479.764 49.4842C482.113 50.3042 492.5 52.696 494.183 51.6089C496.698 49.9814 496.742 42.4204 503.538 41.2121C511.878 39.7324 502.209 52.6368 497.115 51.8347C508.783 59.312 509.704 42.2266 520.475 43.0153C524.673 46.2552 512.749 52.3218 510.06 52.7951C508.225 55.7985 522.623 55.2953 524.695 54.2685C527.845 52.7139 529.939 43.111 536.117 45.7129C540.749 47.6597 530.817 54.1698 528.527 54.542C533.106 55.7899 538.008 54.0843 542.742 54.5321C556.213 55.8027 554.966 65.6084 542.504 62.9057C538.495 62.0376 536.302 58.5202 532.444 57.7597C530.854 57.446 522.126 57.4739 521.423 58.4982L521.442 58.4919Z" fill="white"/>
<path d="M244.99 12L247.47 46.95C248.66 48.47 248.57 47.55 249.65 47.1C255.89 44.49 263.12 37.1 269.5 33.96C270.17 33.74 270.22 34.9 269.99 35.44C268.31 39.17 251.7 51.74 251.15 54.56L262.99 70.88L248.01 61.9L243.5 91.85L239.99 61.9L216 70.39L235.03 56.36C235.19 54.99 235.18 54.79 234.33 53.85C230.07 49.14 220.76 45.49 216.99 39.96L239.99 47.94L242.99 13.47L244.99 12Z" fill="white"/>
</svg>
